<?xml version="1.0" standalone="no"?><!DOCTYPE svg PUBLIC "-//W3C//DTD SVG 1.1//EN" "http://www.w3.org/Graphics/SVG/1.1/DTD/svg11.dtd"><svg t="1749139308724" class="icon" viewBox="0 0 1024 1024" version="1.1" xmlns="http://www.w3.org/2000/svg" p-id="7332" xmlns:xlink="http://www.w3.org/1999/xlink" width="200" height="200"><path d="M834.7 920.1h-643c-23.7 0-43-19.2-43-43 0-23.7 19.2-43 43-43h643c23.7 0 43 19.2 43 43 0 23.7-19.3 43-43 43zM834.7 190.9h-643c-23.7 0-43-19.2-43-43 0-23.7 19.2-43 43-43h643c23.7 0 43 19.2 43 43s-19.3 43-43 43zM834.7 545.5h-643c-23.7 0-43-19.2-43-43 0-23.7 19.2-43 43-43h643c23.7 0 43 19.2 43 43 0 23.7-19.3 43-43 43z" fill="#282828" p-id="7333"></path></svg>