<?xml version="1.0" standalone="no"?><!DOCTYPE svg PUBLIC "-//W3C//DTD SVG 1.1//EN" "http://www.w3.org/Graphics/SVG/1.1/DTD/svg11.dtd"><svg t="1749118252049" class="icon" viewBox="0 0 1024 1024" version="1.1" xmlns="http://www.w3.org/2000/svg" p-id="1486" xmlns:xlink="http://www.w3.org/1999/xlink" width="200" height="200"><path d="M527.29 920.617c-97.335 0.133-179.782 1.06-261.911-7.28-24.919-2.531-49.459-7.649-71.443-20.781-20.154-12.037-30.293-29.482-30.915-53.375-4.069-156.461 116-280.7 272.98-280.422 65.486 0.115 131.108-4.281 196.481 3.28 135.555 15.678 241.923 146.009 230.861 282.707-2.169 26.805-18.13 42.687-41.371 52.79-32.811 14.265-67.837 18.252-102.937 19.62-68.849 2.685-137.733 5.417-191.744 3.459z" p-id="1487"></path><path d="M505.305 119.777c117.664 0.029 215.342 95.647 215.525 210.981 0.183 115.613-99.478 213.655-216.445 212.928-116.627-0.724-215.109-98.466-214.402-212.79 0.717-115.847 97.914-211.147 215.322-211.119z" p-id="1488"></path></svg>